<svg xmlns="http://www.w3.org/2000/svg" viewBox="0 0 1280 720">
  <rect width="1280" height="720" fill="#8d907e"/>
  <radialGradient id="g1" cx="0.82" cy="0.12" r="0.95">
    <stop offset="0" stop-color="rgba(255,255,255,.20)"/><stop offset="0.6" stop-color="rgba(0,0,0,0)"/>
  </radialGradient>
  <rect width="1280" height="720" fill="url(#g1)"/>
  <radialGradient id="g2" cx="0.1" cy="1" r="0.85">
    <stop offset="0" stop-color="rgba(0,0,0,.20)"/><stop offset="0.6" stop-color="rgba(0,0,0,0)"/>
  </radialGradient>
  <rect width="1280" height="720" fill="url(#g2)"/>
  <path d="M 640 330 L 640 185 A 145 145 0 0 1 785 330 Z" fill="#1d1d1b" opacity="0.95"/><path d="M 640 330 L 785 330 A 145 145 0 0 1 640 475 Z" fill="#1d1d1b" opacity="0.6"/><path d="M 640 330 L 640 475 A 145 145 0 0 1 495 330 Z" fill="#1d1d1b" opacity="0.8"/><path d="M 640 330 L 495 330 A 145 145 0 0 1 640 185 Z" fill="#1d1d1b" opacity="0.4"/><rect x="460.0" y="545" width="360" height="36" rx="18.0" fill="#1d1d1b" opacity="1"/><circle cx="640" cy="330" r="210" fill="none" stroke="#1d1d1b" stroke-width="2" opacity="0.3"/>
  <text x="84" y="104" font-family="Helvetica,Arial,sans-serif" font-size="20" letter-spacing="9" font-weight="bold" fill="#1d1d1b" opacity="0.92">BELONG</text>
  <text x="85" y="128" font-family="Helvetica,Arial,sans-serif" font-size="11" letter-spacing="6.5" fill="#1d1d1b" opacity="0.62">ACADEMY</text>
</svg>